<svg xmlns="http://www.w3.org/2000/svg" width="100%" height="100%" viewBox="0 0 48 45" fill="none" preserveAspectRatio="xMidYMid">
  <path d="M11.3748 4.50708C6.23666 7.65508 15.934 18.5665 15.934 18.5665C15.934 18.5665 -0.29655 24.5811 2.27653 29.3413C4.84961 34.1015 16.7984 27.8698 16.7984 27.8698C16.7984 27.8698 18.696 42.267 22.7245 42.5525C26.753 42.8379 26.2584 26.7522 26.2584 26.7522C26.2584 26.7522 45.1867 30.1333 45.9706 26.0647C46.7546 21.996 31.5775 17.0951 31.5775 17.0951C31.5775 17.0951 38.955 4.51512 36.5347 2.30388C34.1104 0.0926379 22.9617 10.6744 22.9617 10.6744C22.9617 10.6744 16.4848 1.37918 11.3788 4.50708H11.3748Z" fill="#FF4F14"/>
</svg>
